<svg version="1" xmlns="http://www.w3.org/2000/svg" width="346.667" height="346.667" viewBox="0 0 260.000000 260.000000"><path d="M60.9 2C31.1 9.3 7.7 33.3 1.5 63 .3 68.9 0 80.6 0 130.3c0 56.2.1 60.7 2 68.3 7.2 30.2 31.1 53.6 61 59.9 5.9 1.2 17.6 1.5 67.3 1.5 56.2 0 60.7-.1 68.3-2 30.2-7.2 53.6-31.1 59.9-61 1.2-5.9 1.5-17.6 1.5-67.3 0-56.2-.1-60.7-2-68.3-7.2-30.2-31.1-53.6-61-59.9C191.1.3 179.5 0 129.2.1 73.5.1 67.9.3 60.9 2zm126.9 11c16 2 28.2 8.1 40.3 20 5.9 5.9 8.5 9.5 11.7 16 7.7 15.7 7.5 14 8 74.5.2 34.9 0 57.3-.7 63.2-2 16.9-7.9 29-20.1 41.4-5.9 5.9-9.5 8.5-16 11.7-15.7 7.7-14 7.5-74.5 8-34.9.2-57.3 0-63.2-.7-16.9-2-29-7.9-41.4-20.1-5.9-5.9-8.5-9.5-11.7-16-7.7-15.7-7.5-14-8-74.5-.2-34.9 0-57.3.7-63.2 2-16.9 7.9-29 20.1-41.3 10.6-10.6 23.4-17 38.2-18.9 9.4-1.3 106.9-1.3 116.6-.1z"/><path d="M108.2 58.2c-2.4 3-27.2 68.1-27.2 71.7 0 3.4 24.8 68.9 27.3 71.9.6.7 2.2 1.2 3.6 1 2.3-.3 3.3-2 9.2-15.3 3.7-8.3 7.2-15.6 7.9-16.3 2.4-2.7 5.1 1.1 10.9 15.3 3.1 7.7 6 14.6 6.4 15.3 1.1 1.7 4.2 1.5 5.8-.4 2.6-3.1 26.9-67.5 26.9-71.3 0-4.1-25-69.5-27.5-72-1.1-1.1-2-1.2-3.7-.4-1.8.8-3.7 4.6-8.2 15.7-5.5 14-7.8 17.3-10.4 15.7-.6-.4-4.2-7.6-8-16.1-6-13.7-7.1-15.5-9.3-15.8-1.4-.2-3.1.3-3.7 1zm10.9 34.5l6.2 15.8-2.2 6c-1.3 3.3-3 8.2-3.8 10.9-1.6 5.2-1.5 5.8 4.3 20.8l1.8 4.7L119 167c-3.5 8.8-6.7 15.7-7.1 15.3-1.8-1.9-17.9-48.8-17.9-52.2 0-2.2 3.3-12.9 7.9-25.7 9.8-27 9.9-27.4 10.5-27.4.2 0 3.2 7.1 6.7 15.7zm39.7 10.1c4.7 13.4 8.2 24.9 8.2 27.1 0 3.2-14.3 46.3-17 51-.7 1.3-1 1.2-1.8-.9-.5-1.4-4.9-12.2-9.6-24-6.1-15.2-8.6-22.7-8.6-25.7 0-3.1 2.7-11.1 9.6-28.4 5.3-13.2 10-23.7 10.4-23.2.4.4 4.3 11.3 8.8 24.1z"/></svg>