<svg width="54" height="54" viewBox="0 0 54 54" fill="none" xmlns="http://www.w3.org/2000/svg">
<path d="M46.17 34.2224L42.12 30.1499V20.1149C42.1739 16.3886 40.8777 12.7685 38.4708 9.9232C36.0638 7.07791 32.7087 5.19955 29.025 4.63495C26.8871 4.3534 24.7137 4.53103 22.6498 5.15599C20.586 5.78095 18.6792 6.83887 17.0566 8.25916C15.434 9.67945 14.133 11.4294 13.2403 13.3924C12.3477 15.3553 11.8839 17.4861 11.88 19.6424V30.1499L7.82998 34.2224C7.32127 34.7396 6.97629 35.3953 6.83818 36.1075C6.70007 36.8197 6.77495 37.5568 7.05346 38.2266C7.33196 38.8965 7.80174 39.4694 8.40407 39.8737C9.0064 40.2781 9.71454 40.4959 10.44 40.5H18V41.2649C18.1051 43.5492 19.1114 45.6985 20.7984 47.2421C22.4854 48.7857 24.7155 49.5976 27 49.5C29.2845 49.5976 31.5146 48.7857 33.2016 47.2421C34.8886 45.6985 35.8949 43.5492 36 41.2649V40.5H43.56C44.2854 40.4959 44.9936 40.2781 45.5959 39.8737C46.1982 39.4694 46.668 38.8965 46.9465 38.2266C47.225 37.5568 47.2999 36.8197 47.1618 36.1075C47.0237 35.3953 46.6787 34.7396 46.17 34.2224ZM31.5 41.2649C31.3752 42.3472 30.8377 43.3396 29.9994 44.0354C29.1611 44.7311 28.0867 45.0767 27 45C25.9133 45.0767 24.8389 44.7311 24.0006 44.0354C23.1623 43.3396 22.6248 42.3472 22.5 41.2649V40.5H31.5V41.2649ZM12.3975 35.9999L15.0525 33.3449C15.4736 32.9263 15.8077 32.4285 16.0356 31.8801C16.2634 31.3318 16.3805 30.7437 16.38 30.1499V19.6424C16.3812 18.1246 16.7071 16.6246 17.3358 15.243C17.9644 13.8615 18.8814 12.6304 20.025 11.6324C21.1532 10.6102 22.49 9.84538 23.943 9.39084C25.396 8.9363 26.9304 8.80293 28.44 8.99995C31.0421 9.42244 33.4039 10.7707 35.0907 12.7965C36.7776 14.8224 37.6758 17.3894 37.62 20.0249V30.1499C37.6166 30.7422 37.7301 31.3293 37.954 31.8775C38.1779 32.4258 38.5079 32.9245 38.925 33.3449L41.6025 35.9999H12.3975Z" fill="url(#paint0_linear)"/>
<defs>
<linearGradient id="paint0_linear" x1="6.77069" y1="-51.1857" x2="91.2854" y2="-24.5699" gradientUnits="userSpaceOnUse">
<stop stop-color="#3452FF"/>
<stop offset="0.234375" stop-color="#4F4EF4"/>
<stop offset="0.645833" stop-color="#D03DC1"/>
<stop offset="1" stop-color="#FF37AF"/>
</linearGradient>
</defs>
</svg>
