<svg width="54" height="54" viewBox="0 0 54 54" fill="none" xmlns="http://www.w3.org/2000/svg">
<path d="M28.5975 25.4027C28.1769 24.9904 27.6114 24.7595 27.0225 24.7595C26.4335 24.7595 25.8681 24.9904 25.4475 25.4027L18.6975 31.9277C18.4587 32.1247 18.2632 32.3689 18.1231 32.6449C17.983 32.9209 17.9014 33.2229 17.8834 33.5319C17.8653 33.8409 17.9112 34.1503 18.0182 34.4407C18.1251 34.7312 18.2909 34.9965 18.505 35.2199C18.7192 35.4434 18.9772 35.6203 19.2628 35.7395C19.5485 35.8588 19.8557 35.9178 20.1652 35.9129C20.4747 35.908 20.7798 35.8393 21.0615 35.711C21.3433 35.5828 21.5955 35.3979 21.8025 35.1677L24.75 32.3102V45.0002C24.75 45.5969 24.987 46.1692 25.409 46.5912C25.831 47.0132 26.4033 47.2502 27 47.2502C27.5967 47.2502 28.169 47.0132 28.591 46.5912C29.0129 46.1692 29.25 45.5969 29.25 45.0002V32.4227L32.1525 35.3477C32.3617 35.5586 32.6105 35.726 32.8847 35.8402C33.1589 35.9544 33.453 36.0132 33.75 36.0132C34.047 36.0132 34.3411 35.9544 34.6153 35.8402C34.8895 35.726 35.1383 35.5586 35.3475 35.3477C35.5584 35.1385 35.7258 34.8897 35.84 34.6155C35.9542 34.3413 36.013 34.0472 36.013 33.7502C36.013 33.4532 35.9542 33.1591 35.84 32.8849C35.7258 32.6107 35.5584 32.3619 35.3475 32.1527L28.5975 25.4027Z" fill="url(#paint0_linear)"/>
<path d="M39.7575 15.7501C38.8394 13.0974 37.1173 10.797 34.8308 9.16874C32.5442 7.54052 29.807 6.66553 27 6.66553C24.193 6.66553 21.4558 7.54052 19.1693 9.16874C16.8827 10.797 15.1606 13.0974 14.2425 15.7501C12.221 16.0208 10.3111 16.836 8.71718 18.1085C7.12325 19.381 5.90521 21.0628 5.19338 22.9741C4.48155 24.8854 4.30271 26.9543 4.67597 28.9594C5.04924 30.9645 5.96058 32.8305 7.31251 34.3576C7.47581 34.6452 7.70053 34.8933 7.97065 35.0842C8.24078 35.2751 8.54967 35.4041 8.87533 35.462C9.20099 35.5199 9.53542 35.5053 9.85479 35.4192C10.1742 35.3331 10.4706 35.1777 10.7231 34.9639C10.9755 34.7502 11.1777 34.4834 11.3153 34.1826C11.4529 33.8818 11.5224 33.5544 11.5191 33.2236C11.5157 32.8929 11.4394 32.567 11.2957 32.2691C11.1519 31.9711 10.9443 31.7086 10.6875 31.5001C9.81702 30.5269 9.24748 29.3221 9.04791 28.0317C8.84834 26.7413 9.02731 25.4208 9.56313 24.23C10.0989 23.0393 10.9686 22.0296 12.0667 21.3232C13.1649 20.6168 14.4443 20.244 15.75 20.2501H15.975C16.5014 20.2607 17.0148 20.0864 17.4259 19.7575C17.8371 19.4286 18.1198 18.9659 18.225 18.4501C18.6381 16.4156 19.7419 14.5864 21.3493 13.2726C22.9568 11.9588 24.969 11.2411 27.045 11.2411C29.121 11.2411 31.1333 11.9588 32.7407 13.2726C34.3481 14.5864 35.4519 16.4156 35.865 18.4501C35.9702 18.9659 36.253 19.4286 36.6641 19.7575C37.0752 20.0864 37.5886 20.2607 38.115 20.2501H38.25C39.5557 20.244 40.8352 20.6168 41.9333 21.3232C43.0314 22.0296 43.9011 23.0393 44.4369 24.23C44.9727 25.4208 45.1517 26.7413 44.9521 28.0317C44.7525 29.3221 44.183 30.5269 43.3125 31.5001C43.1143 31.7223 42.9622 31.9817 42.865 32.2632C42.7678 32.5447 42.7275 32.8427 42.7463 33.1399C42.7651 33.4371 42.8428 33.7276 42.9747 33.9945C43.1067 34.2615 43.2903 34.4996 43.515 34.6951C43.9252 35.0568 44.4531 35.2568 45 35.2576C45.3195 35.2572 45.6352 35.1887 45.9262 35.0568C46.2171 34.9249 46.4767 34.7326 46.6875 34.4926C48.0769 32.9681 49.0205 31.0909 49.415 29.0663C49.8095 27.0418 49.6399 24.9477 48.9245 23.013C48.2092 21.0784 46.9757 19.3776 45.359 18.0967C43.7423 16.8158 41.8045 16.004 39.7575 15.7501Z" fill="url(#paint1_linear)"/>
<defs>
<linearGradient id="paint0_linear" x1="17.8795" y1="-3.0727" x2="56.4399" y2="7.81801" gradientUnits="userSpaceOnUse">
<stop stop-color="#3452FF"/>
<stop offset="0.234375" stop-color="#4F4EF4"/>
<stop offset="0.645833" stop-color="#D03DC1"/>
<stop offset="1" stop-color="#FF37AF"/>
</linearGradient>
<linearGradient id="paint1_linear" x1="4.48596" y1="-29.0131" x2="84.1618" y2="14.6816" gradientUnits="userSpaceOnUse">
<stop stop-color="#3452FF"/>
<stop offset="0.234375" stop-color="#4F4EF4"/>
<stop offset="0.645833" stop-color="#D03DC1"/>
<stop offset="1" stop-color="#FF37AF"/>
</linearGradient>
</defs>
</svg>
