<svg width="54" height="54" viewBox="0 0 54 54" fill="none" xmlns="http://www.w3.org/2000/svg">
<path d="M42.75 44.9999H11.25C10.6533 44.9999 10.081 45.237 9.65901 45.6589C9.23705 46.0809 9 46.6532 9 47.2499C9 47.8467 9.23705 48.419 9.65901 48.8409C10.081 49.2629 10.6533 49.4999 11.25 49.4999H42.75C43.3467 49.4999 43.919 49.2629 44.341 48.8409C44.7629 48.419 45 47.8467 45 47.2499C45 46.6532 44.7629 46.0809 44.341 45.6589C43.919 45.237 43.3467 44.9999 42.75 44.9999ZM11.25 40.4999H11.4525L20.835 39.6449C21.8628 39.5425 22.8241 39.0897 23.5575 38.3624L43.8075 18.1124C44.5935 17.2821 45.0182 16.1741 44.9887 15.0311C44.9592 13.8882 44.4778 12.8036 43.65 12.0149L37.485 5.84992C36.6804 5.09414 35.626 4.66048 34.5225 4.63144C33.419 4.6024 32.3433 4.98001 31.5 5.69242L11.25 25.9424C10.5227 26.6758 10.0699 27.6371 9.9675 28.6649L9 38.0474C8.96969 38.377 9.01245 38.7092 9.12523 39.0203C9.23802 39.3314 9.41805 39.6138 9.6525 39.8474C9.86274 40.056 10.1121 40.2209 10.3862 40.3329C10.6603 40.4449 10.9539 40.5016 11.25 40.4999ZM34.3575 8.99993L40.5 15.1424L36 19.5299L29.97 13.4999L34.3575 8.99993ZM14.3325 29.0474L27 16.4699L33.075 22.5449L20.475 35.1449L13.725 35.7749L14.3325 29.0474Z" fill="url(#paint0_linear)"/>
<defs>
<linearGradient id="paint0_linear" x1="8.99054" y1="-50.8968" x2="85.616" y2="-29.3557" gradientUnits="userSpaceOnUse">
<stop stop-color="#3452FF"/>
<stop offset="0.234375" stop-color="#4F4EF4"/>
<stop offset="0.645833" stop-color="#D03DC1"/>
<stop offset="1" stop-color="#FF37AF"/>
</linearGradient>
</defs>
</svg>
