<svg width="25" height="38" viewBox="0 0 25 38" fill="none" xmlns="http://www.w3.org/2000/svg">
<path fill-rule="evenodd" clip-rule="evenodd" d="M24.5438 17.8737C24.8364 18.5961 24.8364 19.404 24.5438 20.1263L18.225 35.7255C17.8899 36.5529 16.7209 36.5599 16.3759 35.7366L13.6381 29.204C13.3013 28.4003 12.1692 28.382 11.8066 29.1743L8.72809 35.9002C8.36368 36.6964 7.22449 36.6729 6.89317 35.8624L0.464049 20.1352C0.166628 19.4076 0.166629 18.5924 0.464049 17.8648L6.89317 2.1376C7.22449 1.32711 8.36368 1.30365 8.72809 2.09981L11.8066 8.82568C12.1692 9.61803 13.3013 9.5997 13.6381 8.79601L16.3759 2.26344C16.7209 1.44014 17.8899 1.44715 18.225 2.27453L24.5438 17.8737ZM3.44832 17.9394C3.19 18.6229 3.19 19.3771 3.44832 20.0606L7.16814 29.9029C7.48883 30.7514 8.68279 30.7689 9.02822 29.9301L11.3045 24.4029C11.4052 24.1585 11.405 23.8841 11.304 23.6399L9.85926 20.1465C9.55563 19.4123 9.55563 18.5877 9.85926 17.8535L11.304 14.3601C11.405 14.1159 11.4052 13.8416 11.3045 13.5972L9.02822 8.06989C8.68279 7.23115 7.48883 7.24865 7.16814 8.09716L3.44832 17.9394ZM18.2764 29.6084C17.9615 30.4606 16.7652 30.4853 16.4154 29.6468L12.4559 20.155C12.1476 19.4159 12.1476 18.5842 12.4559 17.845L16.4154 8.35319C16.7652 7.51469 17.9615 7.53942 18.2764 8.39166L21.8112 17.9604C22.0591 18.6313 22.0591 19.3687 21.8112 20.0396L18.2764 29.6084Z" fill="url(#paint0_linear)"/>
<defs>
<linearGradient id="paint0_linear" x1="-1.66173e-07" y1="-41.7569" x2="54.0146" y2="-28.2295" gradientUnits="userSpaceOnUse">
<stop stop-color="#3452FF"/>
<stop offset="0.234375" stop-color="#4F4EF4"/>
<stop offset="0.645833" stop-color="#D03DC1"/>
<stop offset="1" stop-color="#FF37AF"/>
</linearGradient>
</defs>
</svg>
