<svg width="12" height="10" viewBox="0 0 12 10" fill="none" xmlns="http://www.w3.org/2000/svg">
<path d="M4.50364 9.14337C4.40651 9.14306 4.31049 9.12277 4.22154 9.08378C4.13258 9.04479 4.0526 8.98792 3.98655 8.9167L0.544053 5.25462C0.415368 5.11748 0.346432 4.93484 0.352409 4.74687C0.358387 4.55891 0.438789 4.38101 0.575928 4.25233C0.713067 4.12364 0.89571 4.05471 1.08368 4.06068C1.27164 4.06666 1.44953 4.14706 1.57822 4.2842L4.49655 7.39379L10.4536 0.877119C10.5141 0.801839 10.5893 0.739713 10.6746 0.694556C10.76 0.649399 10.8536 0.622164 10.9499 0.614525C11.0461 0.606886 11.1429 0.619004 11.2343 0.650135C11.3257 0.681265 11.4098 0.73075 11.4813 0.795552C11.5529 0.860353 11.6105 0.939102 11.6505 1.02696C11.6905 1.11482 11.7122 1.20994 11.7141 1.30647C11.7161 1.403 11.6982 1.4989 11.6617 1.58829C11.6253 1.67768 11.5709 1.75867 11.502 1.82629L5.0278 8.90962C4.96238 8.98212 4.88268 9.04031 4.79369 9.08054C4.70471 9.12076 4.60837 9.14216 4.51072 9.14337H4.50364Z" fill="url(#paint0_linear)"/>
<defs>
<linearGradient id="paint0_linear" x1="0.352051" y1="-9.94489" x2="21.7772" y2="0.0509539" gradientUnits="userSpaceOnUse">
<stop stop-color="#3452FF"/>
<stop offset="0.234375" stop-color="#4F4EF4"/>
<stop offset="0.645833" stop-color="#D03DC1"/>
<stop offset="1" stop-color="#FF37AF"/>
</linearGradient>
</defs>
</svg>
