<svg width="96" height="96" viewBox="0 0 96 96" fill="none" xmlns="http://www.w3.org/2000/svg">
<path d="M48 0.143066C21.5717 0.143066 0.142822 21.572 0.142822 48.0002C0.142822 74.4285 21.5717 95.8574 48 95.8574C74.4282 95.8574 95.8571 74.4285 95.8571 48.0002C95.8571 21.572 74.4282 0.143066 48 0.143066ZM63.3933 48.7373L40.0629 65.7116C39.935 65.8035 39.7843 65.8584 39.6272 65.8702C39.4702 65.882 39.3129 65.8503 39.1727 65.7785C39.0325 65.7068 38.9148 65.5978 38.8325 65.4635C38.7502 65.3292 38.7065 65.1748 38.7063 65.0173V31.09C38.7058 30.9322 38.749 30.7773 38.8311 30.6425C38.9132 30.5077 39.031 30.3983 39.1715 30.3264C39.312 30.2545 39.4697 30.2229 39.627 30.2351C39.7843 30.2474 39.9352 30.3029 40.0629 30.3956L63.3933 47.3593C63.5035 47.4372 63.5934 47.5405 63.6555 47.6604C63.7175 47.7803 63.7499 47.9133 63.7499 48.0483C63.7499 48.1833 63.7175 48.3163 63.6555 48.4362C63.5934 48.5561 63.5035 48.6593 63.3933 48.7373Z" fill="white"/>
</svg>
