<svg width="30" height="30" viewBox="0 0 30 30" fill="none" xmlns="http://www.w3.org/2000/svg">
<rect x="1" y="1" width="28" height="28" rx="14" fill="white" stroke="url(#paint0_linear)" stroke-width="2"/>
<path d="M19.9219 17.8126C19.7302 17.813 19.5445 17.7367 19.3969 17.5969L15 13.3969L10.5949 17.4469C10.511 17.5248 10.4145 17.583 10.3108 17.6181C10.2072 17.6531 10.0985 17.6645 9.99103 17.6514C9.88354 17.6383 9.77938 17.6011 9.68452 17.5419C9.58966 17.4827 9.50598 17.4026 9.43829 17.3063C9.37015 17.2104 9.31926 17.1001 9.28856 16.9816C9.25785 16.8632 9.24793 16.739 9.25936 16.6161C9.2708 16.4933 9.30336 16.3743 9.35518 16.2658C9.40701 16.1574 9.47707 16.0618 9.56133 15.9844L14.4832 11.4563C14.63 11.3184 14.8141 11.243 15.0041 11.243C15.1941 11.243 15.3782 11.3184 15.525 11.4563L20.4469 16.1438C20.5299 16.2225 20.5986 16.3192 20.6489 16.4282C20.6993 16.5373 20.7303 16.6567 20.7402 16.7795C20.7501 16.9023 20.7387 17.0261 20.7067 17.1438C20.6746 17.2616 20.6226 17.371 20.5535 17.4657C20.4772 17.5732 20.381 17.6601 20.2717 17.7201C20.1625 17.7801 20.043 17.8116 19.9219 17.8126Z" fill="url(#paint1_linear)"/>
<defs>
<linearGradient id="paint0_linear" x1="-1.99408e-07" y1="-37.125" x2="61.3542" y2="-15.6329" gradientUnits="userSpaceOnUse">
<stop stop-color="#3452FF"/>
<stop offset="0.197917" stop-color="#5C4DEF"/>
<stop offset="1" stop-color="#FF37AF"/>
<stop offset="1" stop-color="#FF37AF"/>
</linearGradient>
<linearGradient id="paint1_linear" x1="9.25476" y1="3.11326" x2="28.436" y2="14.8637" gradientUnits="userSpaceOnUse">
<stop stop-color="#3452FF"/>
<stop offset="0.197917" stop-color="#5C4DEF"/>
<stop offset="1" stop-color="#FF37AF"/>
<stop offset="1" stop-color="#FF37AF"/>
</linearGradient>
</defs>
</svg>
