<svg width="25" height="25" viewBox="0 0 25 25" fill="none" xmlns="http://www.w3.org/2000/svg">
<path fill-rule="evenodd" clip-rule="evenodd" d="M9.14687 6.47806C9.21962 6.55063 9.27735 6.63684 9.31673 6.73175C9.35612 6.82667 9.37639 6.92842 9.37639 7.03118C9.37639 7.13394 9.35612 7.2357 9.31673 7.33061C9.27735 7.42552 9.21962 7.51174 9.14687 7.58431L4.22968 12.4999L9.14687 17.4156C9.2195 17.4882 9.27712 17.5744 9.31643 17.6693C9.35575 17.7642 9.37598 17.866 9.37598 17.9687C9.37598 18.0714 9.35575 18.1731 9.31643 18.268C9.27712 18.3629 9.2195 18.4492 9.14687 18.5218C9.07423 18.5944 8.988 18.6521 8.89309 18.6914C8.79819 18.7307 8.69647 18.7509 8.59374 18.7509C8.49102 18.7509 8.3893 18.7307 8.29439 18.6914C8.19949 18.6521 8.11325 18.5944 8.04062 18.5218L2.57187 13.0531C2.49911 12.9805 2.44139 12.8943 2.402 12.7994C2.36262 12.7044 2.34235 12.6027 2.34235 12.4999C2.34235 12.3972 2.36262 12.2954 2.402 12.2005C2.44139 12.1056 2.49911 12.0194 2.57187 11.9468L8.04062 6.47806C8.11319 6.4053 8.1994 6.34758 8.29431 6.30819C8.38923 6.26881 8.49098 6.24854 8.59374 6.24854C8.6965 6.24854 8.79826 6.26881 8.89317 6.30819C8.98808 6.34758 9.0743 6.4053 9.14687 6.47806ZM15.8531 6.47806C15.7804 6.55063 15.7226 6.63684 15.6833 6.73175C15.6439 6.82667 15.6236 6.92842 15.6236 7.03118C15.6236 7.13394 15.6439 7.2357 15.6833 7.33061C15.7226 7.42552 15.7804 7.51174 15.8531 7.58431L20.7703 12.4999L15.8531 17.4156C15.7064 17.5623 15.624 17.7612 15.624 17.9687C15.624 18.1761 15.7064 18.3751 15.8531 18.5218C15.9998 18.6685 16.1988 18.7509 16.4062 18.7509C16.6137 18.7509 16.8127 18.6685 16.9594 18.5218L22.4281 13.0531C22.5009 12.9805 22.5586 12.8943 22.598 12.7994C22.6374 12.7044 22.6576 12.6027 22.6576 12.4999C22.6576 12.3972 22.6374 12.2954 22.598 12.2005C22.5586 12.1056 22.5009 12.0194 22.4281 11.9468L16.9594 6.47806C16.8868 6.4053 16.8006 6.34758 16.7057 6.30819C16.6108 6.26881 16.509 6.24854 16.4062 6.24854C16.3035 6.24854 16.2017 6.26881 16.1068 6.30819C16.0119 6.34758 15.9257 6.4053 15.8531 6.47806Z" fill="#404040"/>
</svg>
