<svg width="25" height="25" viewBox="0 0 25 25" fill="none" xmlns="http://www.w3.org/2000/svg">
<path d="M9.375 20.3125C9.375 22.0391 7.625 23.4375 5.46875 23.4375C3.3125 23.4375 1.5625 22.0391 1.5625 20.3125C1.5625 18.5875 3.3125 17.1875 5.46875 17.1875C7.625 17.1875 9.375 18.5875 9.375 20.3125ZM23.4375 17.1875C23.4375 18.9141 21.6875 20.3125 19.5312 20.3125C17.375 20.3125 15.625 18.9141 15.625 17.1875C15.625 15.4609 17.375 14.0625 19.5312 14.0625C21.6875 14.0625 23.4375 15.4609 23.4375 17.1875Z" fill="#404040"/>
<path fill-rule="evenodd" clip-rule="evenodd" d="M21.875 17.1875V3.125H23.4375V17.1875H21.875ZM9.375 4.6875V20.3125H7.8125V4.6875H9.375Z" fill="#404040"/>
<path d="M7.8125 4.53908C7.8125 4.15173 7.95637 3.77818 8.21621 3.49091C8.47606 3.20364 8.83334 3.02313 9.21875 2.98439L21.7187 1.73439C21.936 1.71256 22.1555 1.73651 22.3629 1.8047C22.5704 1.87288 22.7612 1.9838 22.9232 2.13029C23.0851 2.27678 23.2146 2.45558 23.3031 2.65518C23.3917 2.85477 23.4375 3.07071 23.4375 3.28908V4.68752L7.8125 6.25002V4.53908Z" fill="#404040"/>
</svg>
