<svg width="16" height="25" viewBox="0 0 16 25" fill="none" xmlns="http://www.w3.org/2000/svg">
<g clip-path="url(#clip0)">
<path d="M13.2812 0H2.34375C1.0498 0 0 1.0498 0 2.34375V22.6562C0 23.9502 1.0498 25 2.34375 25H13.2812C14.5752 25 15.625 23.9502 15.625 22.6562V2.34375C15.625 1.0498 14.5752 0 13.2812 0ZM7.8125 23.4375C6.94824 23.4375 6.25 22.7393 6.25 21.875C6.25 21.0107 6.94824 20.3125 7.8125 20.3125C8.67676 20.3125 9.375 21.0107 9.375 21.875C9.375 22.7393 8.67676 23.4375 7.8125 23.4375Z" fill="#404040"/>
</g>
<defs>
<clipPath id="clip0">
<rect width="15.625" height="25" fill="white"/>
</clipPath>
</defs>
</svg>
