<svg width="25" height="25" viewBox="0 0 25 25" fill="none" xmlns="http://www.w3.org/2000/svg">
<path d="M12.5 15.8332C14.3409 15.8332 15.8333 14.3408 15.8333 12.4998C15.8333 10.6589 14.3409 9.1665 12.5 9.1665C10.659 9.1665 9.16663 10.6589 9.16663 12.4998C9.16663 14.3408 10.659 15.8332 12.5 15.8332Z" fill="#404040"/>
<path d="M9.37498 2.0835L7.46873 4.16683H4.16665C3.02081 4.16683 2.08331 5.10433 2.08331 6.25016V18.7502C2.08331 19.896 3.02081 20.8335 4.16665 20.8335H20.8333C21.9791 20.8335 22.9166 19.896 22.9166 18.7502V6.25016C22.9166 5.10433 21.9791 4.16683 20.8333 4.16683H17.5312L15.625 2.0835H9.37498ZM12.5 17.7085C9.62498 17.7085 7.29165 15.3752 7.29165 12.5002C7.29165 9.62516 9.62498 7.29183 12.5 7.29183C15.375 7.29183 17.7083 9.62516 17.7083 12.5002C17.7083 15.3752 15.375 17.7085 12.5 17.7085Z" fill="#404040"/>
</svg>
