<svg width="27" height="38" viewBox="0 0 27 38" fill="none" xmlns="http://www.w3.org/2000/svg">
<path d="M22.86 25.056C22.428 25.344 21.84 25.668 21.096 26.028C20.352 26.388 19.476 26.7 18.468 26.964C17.484 27.204 16.404 27.312 15.228 27.288C13.188 27.264 11.364 26.904 9.756 26.208C8.148 25.512 6.768 24.564 5.616 23.364C4.488 22.14 3.624 20.748 3.024 19.188C2.424 17.628 2.124 15.96 2.124 14.184C2.124 12.24 2.436 10.452 3.06 8.82C3.708 7.164 4.608 5.736 5.76 4.536C6.912 3.312 8.268 2.364 9.828 1.692C11.412 1.02 13.14 0.684 15.012 0.684C16.572 0.684 17.988 0.899999 19.26 1.332C20.532 1.74 21.624 2.22 22.536 2.772L21.132 6.048C20.412 5.568 19.536 5.112 18.504 4.68C17.472 4.248 16.344 4.032 15.12 4.032C13.848 4.032 12.648 4.296 11.52 4.824C10.392 5.328 9.396 6.036 8.532 6.948C7.668 7.836 6.984 8.892 6.48 10.116C6 11.316 5.76 12.612 5.76 14.004C5.76 15.876 6.144 17.568 6.912 19.08C7.704 20.568 8.808 21.744 10.224 22.608C11.664 23.472 13.344 23.904 15.264 23.904C16.608 23.904 17.784 23.712 18.792 23.328C19.824 22.92 20.676 22.452 21.348 21.924L22.86 25.056Z" fill="#404040"/>
<path d="M4.14 35.056C4.572 35.344 5.16 35.668 5.904 36.028C6.648 36.388 7.524 36.7 8.532 36.964C9.516 37.204 10.596 37.312 11.772 37.288C13.812 37.264 15.636 36.904 17.244 36.208C18.852 35.512 20.232 34.564 21.384 33.364C22.512 32.14 23.376 30.748 23.976 29.188C24.576 27.628 24.876 25.96 24.876 24.184C24.876 22.24 24.564 20.452 23.94 18.82C23.292 17.164 22.392 15.736 21.24 14.536C20.088 13.312 18.732 12.364 17.172 11.692C15.588 11.02 13.86 10.684 11.988 10.684C10.428 10.684 9.012 10.9 7.74 11.332C6.468 11.74 5.376 12.22 4.464 12.772L5.868 16.048C6.588 15.568 7.464 15.112 8.496 14.68C9.528 14.248 10.656 14.032 11.88 14.032C13.152 14.032 14.352 14.296 15.48 14.824C16.608 15.328 17.604 16.036 18.468 16.948C19.332 17.836 20.016 18.892 20.52 20.116C21 21.316 21.24 22.612 21.24 24.004C21.24 25.876 20.856 27.568 20.088 29.08C19.296 30.568 18.192 31.744 16.776 32.608C15.336 33.472 13.656 33.904 11.736 33.904C10.392 33.904 9.216 33.712 8.208 33.328C7.176 32.92 6.324 32.452 5.652 31.924L4.14 35.056Z" fill="#404040"/>
</svg>
