<svg width="12" height="7" viewBox="0 0 12 7" fill="none" xmlns="http://www.w3.org/2000/svg">
<path d="M10.9219 6.81256C10.7302 6.81299 10.5445 6.7367 10.3969 6.59693L6.00001 2.39694L1.59493 6.44693C1.51102 6.52481 1.41447 6.58296 1.31083 6.61806C1.2072 6.65315 1.09851 6.66449 0.991028 6.65142C0.883543 6.63835 0.779379 6.60113 0.68452 6.54191C0.589662 6.48268 0.505981 6.40262 0.438286 6.30631C0.370146 6.21041 0.319261 6.10007 0.288556 5.98163C0.25785 5.86319 0.247929 5.73898 0.259364 5.61614C0.270798 5.4933 0.303362 5.37425 0.355185 5.26584C0.407007 5.15743 0.477065 5.0618 0.561333 4.98444L5.48321 0.456312C5.62999 0.318423 5.8141 0.243042 6.00411 0.243042C6.19411 0.243042 6.37823 0.318423 6.52501 0.456312L11.4469 5.14381C11.5299 5.22251 11.5986 5.31917 11.6489 5.42824C11.6993 5.53732 11.7303 5.65667 11.7402 5.77946C11.7501 5.90225 11.7387 6.02607 11.7067 6.14382C11.6746 6.26158 11.6226 6.37095 11.5535 6.46568C11.4772 6.57323 11.381 6.66011 11.2717 6.72009C11.1625 6.78006 11.043 6.81164 10.9219 6.81256Z" fill="url(#paint0_linear)"/>
<defs>
<linearGradient id="paint0_linear" x1="0.254761" y1="-7.88674" x2="19.436" y2="3.86372" gradientUnits="userSpaceOnUse">
<stop stop-color="#3452FF"/>
<stop offset="0.197917" stop-color="#5C4DEF"/>
<stop offset="1" stop-color="#FF37AF"/>
<stop offset="1" stop-color="#FF37AF"/>
</linearGradient>
</defs>
</svg>
