<svg width="101" height="24" viewBox="0 0 101 24" fill="none" xmlns="http://www.w3.org/2000/svg">
<path d="M14.36 17.632C14.104 17.808 13.72 18.024 13.208 18.28C12.712 18.536 12.112 18.76 11.408 18.952C10.704 19.128 9.936 19.208 9.104 19.192C7.744 19.176 6.52 18.936 5.432 18.472C4.344 17.992 3.416 17.352 2.648 16.552C1.896 15.736 1.32 14.808 0.92 13.768C0.52 12.712 0.32 11.592 0.32 10.408C0.32 9.08 0.528 7.864 0.944 6.76C1.376 5.656 1.968 4.704 2.72 3.904C3.488 3.088 4.392 2.456 5.432 2.008C6.488 1.56 7.648 1.336 8.912 1.336C10.016 1.336 11 1.488 11.864 1.792C12.744 2.08 13.48 2.408 14.072 2.776L12.968 5.392C12.52 5.088 11.96 4.784 11.288 4.48C10.616 4.176 9.856 4.024 9.008 4.024C7.968 4.024 7.008 4.304 6.128 4.864C5.264 5.408 4.56 6.152 4.016 7.096C3.488 8.024 3.224 9.072 3.224 10.24C3.224 11.456 3.464 12.536 3.944 13.48C4.44 14.424 5.128 15.168 6.008 15.712C6.904 16.24 7.96 16.504 9.176 16.504C10.088 16.504 10.88 16.368 11.552 16.096C12.224 15.808 12.768 15.488 13.184 15.136L14.36 17.632ZM16.6955 13.816C16.6955 12.792 16.9355 11.872 17.4155 11.056C17.9115 10.24 18.5835 9.592 19.4315 9.112C20.2955 8.632 21.2875 8.392 22.4075 8.392C23.5435 8.392 24.5275 8.632 25.3595 9.112C26.2075 9.592 26.8635 10.24 27.3275 11.056C27.7915 11.872 28.0235 12.792 28.0235 13.816C28.0235 14.84 27.7915 15.768 27.3275 16.6C26.8635 17.416 26.2075 18.064 25.3595 18.544C24.5115 19.024 23.5195 19.264 22.3835 19.264C21.2795 19.264 20.2955 19.048 19.4315 18.616C18.5835 18.168 17.9115 17.536 17.4155 16.72C16.9355 15.904 16.6955 14.936 16.6955 13.816ZM19.4075 13.84C19.4075 14.448 19.5355 15 19.7915 15.496C20.0475 15.976 20.3915 16.36 20.8235 16.648C21.2715 16.92 21.7755 17.056 22.3355 17.056C23.2155 17.056 23.9275 16.752 24.4715 16.144C25.0155 15.52 25.2875 14.752 25.2875 13.84C25.2875 12.928 25.0155 12.16 24.4715 11.536C23.9275 10.912 23.2155 10.6 22.3355 10.6C21.7755 10.6 21.2715 10.752 20.8235 11.056C20.3915 11.344 20.0475 11.736 19.7915 12.232C19.5355 12.712 19.4075 13.248 19.4075 13.84ZM35 19.264C34.04 19.264 33.184 19.04 32.432 18.592C31.68 18.144 31.088 17.512 30.656 16.696C30.224 15.864 30.008 14.888 30.008 13.768C30.008 12.632 30.24 11.664 30.704 10.864C31.168 10.064 31.8 9.456 32.6 9.04C33.4 8.608 34.312 8.392 35.336 8.392C36.072 8.392 36.768 8.536 37.424 8.824C38.096 9.096 38.624 9.472 39.008 9.952V0.279999H41.672V19H38.984V17.632C38.488 18.112 37.904 18.504 37.232 18.808C36.576 19.112 35.832 19.264 35 19.264ZM35.864 16.984C36.648 16.984 37.304 16.792 37.832 16.408C38.376 16.024 38.76 15.488 38.984 14.8V12.64C38.792 12.016 38.408 11.504 37.832 11.104C37.272 10.704 36.616 10.504 35.864 10.504C35.288 10.504 34.76 10.648 34.28 10.936C33.816 11.208 33.44 11.584 33.152 12.064C32.864 12.544 32.72 13.096 32.72 13.72C32.72 14.328 32.864 14.88 33.152 15.376C33.44 15.872 33.816 16.264 34.28 16.552C34.76 16.84 35.288 16.984 35.864 16.984ZM50.2273 19.264C49.0273 19.264 48.0033 19.032 47.1553 18.568C46.3073 18.104 45.6593 17.464 45.2113 16.648C44.7633 15.816 44.5393 14.88 44.5393 13.84C44.5393 12.832 44.7953 11.92 45.3073 11.104C45.8193 10.272 46.5073 9.616 47.3713 9.136C48.2353 8.64 49.2033 8.392 50.2753 8.392C51.6673 8.392 52.8113 8.8 53.7073 9.616C54.6193 10.416 55.2273 11.552 55.5312 13.024L47.7313 15.664C48.3073 16.528 49.1553 16.96 50.2753 16.96C50.6913 16.96 51.0833 16.888 51.4513 16.744C51.8353 16.6 52.2033 16.408 52.5553 16.168L53.7793 18.16C53.2353 18.496 52.6513 18.768 52.0273 18.976C51.4033 19.168 50.8033 19.264 50.2273 19.264ZM47.1793 13.696C47.1793 13.824 47.1873 13.96 47.2033 14.104L52.5313 12.208C52.3393 11.76 52.0513 11.368 51.6673 11.032C51.2833 10.68 50.7473 10.504 50.0593 10.504C49.2113 10.504 48.5153 10.8 47.9713 11.392C47.4433 11.984 47.1793 12.752 47.1793 13.696ZM71.6881 17.632C71.4321 17.808 71.0481 18.024 70.5361 18.28C70.0401 18.536 69.4401 18.76 68.7361 18.952C68.0321 19.128 67.2641 19.208 66.4321 19.192C65.0721 19.176 63.8481 18.936 62.7601 18.472C61.6721 17.992 60.7441 17.352 59.9761 16.552C59.2241 15.736 58.6481 14.808 58.2481 13.768C57.8481 12.712 57.6481 11.592 57.6481 10.408C57.6481 9.08 57.8561 7.864 58.2721 6.76C58.7041 5.656 59.2961 4.704 60.0481 3.904C60.8161 3.088 61.7201 2.456 62.7601 2.008C63.8161 1.56 64.9761 1.336 66.2401 1.336C67.3441 1.336 68.3281 1.488 69.1921 1.792C70.0721 2.08 70.8081 2.408 71.4001 2.776L70.2961 5.392C69.8481 5.088 69.2881 4.784 68.6161 4.48C67.9441 4.176 67.1841 4.024 66.3361 4.024C65.2961 4.024 64.3361 4.304 63.4561 4.864C62.5921 5.408 61.8881 6.152 61.3441 7.096C60.8161 8.024 60.5521 9.072 60.5521 10.24C60.5521 11.456 60.7921 12.536 61.2721 13.48C61.7681 14.424 62.4561 15.168 63.3361 15.712C64.2321 16.24 65.2881 16.504 66.5041 16.504C67.4161 16.504 68.2081 16.368 68.8801 16.096C69.5521 15.808 70.0961 15.488 70.5121 15.136L71.6881 17.632ZM74.8636 8.848H77.5516V19H74.8636V8.848ZM74.7436 5.224C74.7436 4.808 74.9036 4.464 75.2236 4.192C75.5596 3.92 75.9196 3.784 76.3036 3.784C76.6716 3.784 77.0156 3.92 77.3356 4.192C77.6556 4.464 77.8156 4.808 77.8156 5.224C77.8156 5.64 77.6556 5.984 77.3356 6.256C77.0156 6.512 76.6716 6.64 76.3036 6.64C75.9196 6.64 75.5596 6.512 75.2236 6.256C74.9036 5.984 74.7436 5.64 74.7436 5.224ZM82.2226 4.384H84.9106V8.848H87.5506V10.96H84.9106V19H82.2226V10.96H80.4706V8.848H82.2226V4.384ZM91.0318 23.872L93.4078 18.592L88.7038 8.848H91.7278L94.7518 15.568L97.7758 8.848H100.224L93.6718 23.872H91.0318Z" fill="#404040"/>
</svg>
